PathFileType	4	(X/Y/Z)	Patient4_TMGait_0pt6_01_right_17.trc.trc
DataRate	CameraRate	NumFrames	NumMarkers	Units	OrigDataRate	OrigDataStartFrame	OrigNumFrames
84.848484848485	84.848484848485	4	33	mm	84.848484848485	18	       141
Frame#	Time	Sacral			L.Shoulder			Chest			R.Shoulder			Neck			R.ASIS			L.ASIS			R.Thigh.Superior			R.Thigh.Lateral			R.Thigh.Inferior			R.Patella			L.Thigh.Superior			L.Thigh.Lateral			L.Thigh.Inferior			L.Patella			L.Shank.Superior			L.Shank.Lateral			L.Shank.Inferior			R.Shank.Superior			R.Shank.Lateral			R.Shank.Inferior			R.Heel			R.Midfoot.Superior			R.Midfoot.Lateral			R.Toe			L.Heel			L.Midfoot.Lateral			L.Midfoot.Superior			L.Toe			L.Elbow			L.Wrist			R.Elbow			R.Wrist			
		X1	Y1	Z1	X2	Y2	Z2	X3	Y3	Z3	X4	Y4	Z4	X5	Y5	Z5	X6	Y6	Z6	X7	Y7	Z7	X8	Y8	Z8	X9	Y9	Z9	X10	Y10	Z10	X11	Y11	Z11	X12	Y12	Z12	X13	Y13	Z13	X14	Y14	Z14	X15	Y15	Z15	X16	Y16	Z16	X17	Y17	Z17	X18	Y18	Z18	X19	Y19	Z19	X20	Y20	Z20	X21	Y21	Z21	X22	Y22	Z22	X23	Y23	Z23	X24	Y24	Z24	X25	Y25	Z25	X26	Y26	Z26	X27	Y27	Z27	X28	Y28	Z28	X29	Y29	Z29	X30	Y30	Z30	X31	Y31	Z31	X32	Y32	Z32	X33	Y33	Z33	

18	20.330357142857	622.725714586136	1002.752301023971	429.075713229798	812.318377621851	1436.879945610227	271.792401910888	898.121963111945	1363.172733428357	440.135089650000	797.536973690606	1430.667601177325	606.121264598152	777.502779485620	1492.972785323821	425.298222830591	839.677484076544	943.167457717117	567.254457254316	848.787210430637	958.930811647099	291.797892930858	911.863913861342	760.794005103850	542.264268231905	860.895368272526	644.514168283646	612.647419082002	947.213416305491	603.230921232009	532.332803510511	978.744430899869	524.727528766127	548.588212983178	859.451515890032	731.017661730718	328.259291354333	748.026685431522	632.409055151042	260.171091792706	803.587810653660	542.869910707932	332.746262454259	787.780274901010	476.404845865601	343.768463889071	758.216100023525	408.560953936303	335.384867208200	662.958001764548	299.848455312124	281.302545456609	698.244948148230	188.603667052512	361.544099006714	968.470565958001	436.699860958548	559.362346479141	922.648940851031	320.262025869635	622.762840413264	996.210019595449	238.173956945836	569.764583611684	912.616190784440	46.587755028583	539.128372164969	1072.537178155524	125.507090933512	581.848775291327	996.398501159948	46.695281887358	613.547016408219	1197.679741630486	92.946583783262	608.322003458159	558.990941157576	38.156976526230	403.820049180817	634.854631022719	34.897413575236	324.818348365977	717.426553934501	95.187253442631	353.706071637587	846.417683859537	43.702483263475	329.390466488260	863.786829058075	1098.597044372730	128.125454963889	1113.093638918681	1031.266313710608	136.678683026105	644.032306060095	1121.346508881073	705.489565133598	600.722443444613	865.493975650226	724.934341872280	
19	20.342142857143	623.977315825467	1001.382110303580	430.312063831556	813.149207295514	1435.716543885229	273.429153574017	898.592728411755	1362.173045000821	442.002807327079	797.467474087843	1429.564552661362	607.708988637775	777.859945766615	1491.766542898039	426.825311317020	840.638670513696	942.067344992187	569.302926444894	850.363972081637	957.623833356681	293.726109629226	912.226090637297	759.025967448056	544.916152467595	859.394612797224	642.309724847379	613.584409170414	946.372057484553	601.434684928700	534.057879792197	976.463425987101	522.991037187005	549.160186840006	859.542453580068	729.451524023158	329.929351541299	747.939199237860	631.350283196013	261.651155850971	802.673629861326	541.453649134158	334.378620295327	786.226962935248	474.664103712011	345.383180399747	755.801143772310	407.017444349730	336.746817806509	659.146164830684	299.682682068320	282.235617129068	692.563132365010	187.758715091925	362.172553826368	966.923703829207	434.639739596301	559.759951965236	921.138587233141	317.894883606899	622.384856509422	995.177169686068	236.305018981609	569.371104246904	912.096588120891	45.361005016302	537.774689822864	1071.868260175882	123.367884295176	580.865297752851	995.541991158133	45.213759066492	612.460122636181	1196.832810022233	90.513595991799	607.823006878726	551.894482242879	38.083794885027	403.783393376111	627.786774371581	34.870986357293	324.858915899729	710.422238276850	95.062168680566	353.889882036067	839.374098421788	43.344095865019	329.431611870507	863.804788535663	1097.262717810955	129.971472324599	1113.499901945915	1032.418187855180	139.160962270899	643.764610782981	1120.293253974902	706.398248943611	600.449699357599	864.383653136729	725.541416763908	
20	20.353928571429	625.434327279679	999.916025330233	431.828769585668	813.851049342359	1434.503935232767	275.142695438779	899.056501000747	1361.220368626732	443.926992091794	797.369024140847	1428.406591242106	609.392071304943	778.147591983503	1490.513766792423	428.425296530061	841.919132638129	940.948088178933	571.437040655346	852.079601401957	956.269991060756	295.767668078174	913.345985733412	757.536908713144	547.549304146775	858.475489146763	640.108843024578	614.257393010302	946.332844838500	599.798530737198	535.758285221437	974.718033124382	520.934626096134	549.582334975136	859.724041608444	727.818083284569	331.604140443297	747.974379238871	630.232312307040	263.310890167294	802.024809136646	539.944069697411	336.062394538347	784.993937989759	472.765441842543	347.050812907687	753.582786818017	405.383975234676	338.185754891599	655.402790995327	299.550952832197	283.253882710254	686.920718340167	186.906835227221	362.809314046125	965.322279831686	432.120363149547	559.900624120245	918.678039223118	315.455780567789	621.750838510779	992.396875188406	233.813226463360	568.667266865139	908.232193563923	44.353514614409	536.348470035800	1068.407924089635	120.460864999654	579.579648111913	991.346891296788	43.656968311970	611.311660966433	1192.962898823538	86.468564658968	607.044649468220	544.767207884334	37.996510278556	403.719419017518	620.718926258974	34.809235483297	324.903530094284	703.418995345094	94.941927685056	354.060622976562	832.351062360586	42.954273110844	329.468313832125	863.616299157484	1095.784758612670	131.978078333270	1113.530735341344	1032.586145090724	141.704856724628	644.171407760772	1118.738128702899	707.428812122579	601.566771785949	862.636808590693	726.276913651684	
21	20.365714285714	627.073900371783	998.393804415331	433.612492886109	814.431426421016	1433.264939600459	276.932131815957	899.533158639757	1360.333305039558	445.901775509757	797.274468907127	1427.214910720282	611.174495956124	778.390957680457	1489.244632318339	430.103854492947	843.506734517818	939.839334818371	573.637880574834	853.921225198060	954.901250624955	297.915731145636	915.111314699124	756.234649807608	550.118853899768	858.064503742420	637.956415633996	614.734326287594	946.922995822309	598.267442054958	537.406181410784	973.409343967883	518.595824159988	549.880688870168	860.053247287379	726.149830435626	333.271918826063	748.122837566794	629.076206626919	265.150744465353	801.678860313118	538.361191063644	337.772952756486	784.151241483229	470.712180042482	348.725080102045	751.589143618120	403.681943680758	339.676703543761	651.738855241620	299.497135250061	284.349243653559	681.332352537005	186.086232511497	363.437393249601	963.680568645666	429.246201983314	559.846029774334	915.502059236176	312.952955979761	620.962237022320	988.257988058383	230.810071308404	567.730290010899	901.709339820075	43.486981967600	534.960010454482	1062.753061368261	116.976458720564	578.054866569969	984.537497599433	42.063168516144	610.181435218575	1186.748789431385	81.188462886950	605.989164839767	537.602230600242	37.957709824464	403.623399726522	613.649851254152	34.731034968414	324.950043634875	696.434186163562	94.835834622950	354.202160299912	825.354410839575	42.531705046897	329.496665465462	863.211605639756	1094.168860444952	134.156009241047	1113.194187762124	1031.772764554341	144.303785227062	645.229117720065	1116.739276695870	708.591646245982	604.047730920313	860.319293661128	727.152319071664	
